# AST/ASF file generated using VICON BodyLanguage
# -----------------------------------------------
:version 1.10
:name VICON
:units
  mass 1.0
  length 0.45
  angle deg
:documentation
   .ast/.asf automatically generated from VICON data using
   VICON BodyBuilder and BodyLanguage model FoxedUp or BRILLIANT.MOD
:root
   order TX TY TZ RX RY RZ
   axis XYZ
   position 0 0 0  
   orientation 0 0 0 
:bonedata
  begin
     id 1 
     name lhipjoint
     direction 0.547975 -0.797114 0.253638 
     length 2.36201 
     axis 0 0 0  XYZ
  end
  begin
     id 2 
     name lfemur
     direction 0.34202 -0.939693 0  
     length 7.69075  
     axis 0 0 20  XYZ
    dof rx ry rz
    limits (-160.0 20.0)
           (-70.0 70.0)
           (-60.0 70.0)
  end
  begin
     id 3 
     name ltibia
     direction 0.34202 -0.939693 0   
     length 7.91399   
     axis 0 0 20   XYZ
    dof rx
    limits (-10.0 170.0)
  end
  begin
     id 4 
     name lfoot
     direction 0.0705293 -0.193778 0.978507   
     length 2.13618   
     axis -90 7.62852e-016 20   XYZ
    dof rx rz
    limits (-45.0 90.0)
           (-70.0 20.0)
  end
  begin
     id 5 
     name ltoes
     direction 1.53592e-011 -4.21925e-011 1   
     length 1.07518   
     axis -90 7.62852e-016 20   XYZ
    dof rx
    limits (-90.0 20.0)
  end
  begin
     id 6 
     name rhipjoint
     direction -0.57 -0.782963 0.249136   
     length 2.4047  
     axis 0 0 0  XYZ 
  end
  begin
     id 7 
     name rfemur
     direction -0.34202 -0.939693 0   
     length 7.51486   
     axis 0 0 -20   XYZ
    dof rx ry rz
    limits (-160.0 20.0)
           (-70.0 70.0)
           (-70.0 60.0)
  end
  begin
     id 8 
     name rtibia
     direction -0.34202 -0.939693 0   
     length 8.08317   
     axis 0 0 -20   XYZ
    dof rx
    limits (-10.0 170.0)
 end
 begin
     id 9 
     name rfoot
     direction -0.104954 -0.281256 0.953876   
     length 2.30343  
     axis -90 -7.62852e-016 -20   XYZ
    dof rx rz
    limits (-45.0 90.0)
           (-20.0 70.0)
  end
  begin
     id 10 
     name rtoes
     direction -1.53556e-011 -4.21922e-011 1   
     length 1.14803   
     axis -90 -7.62852e-016 -20   XYZ
    dof rx
    limits (-90.0 20.0)
  end
  begin
     id 11 
     name lowerback
     direction -0.0152855 0.99353 -0.11254   
     length 2.05311   
     axis 0 0 0   XYZ
    dof rx ry rz
    limits (-20.0 45.0)
           (-30.0 30.0)
           (-30.0 30.0)
  end
  begin
     id 12 
     name upperback
     direction -0.00157509 0.999443 -0.033332   
     length 2.06353   
     axis 0 0 0   XYZ
    dof rx ry rz
    limits (-20.0 45.0)
           (-30.0 30.0)
           (-30.0 30.0)
  end
  begin
     id 13 
     name thorax
     direction 0.00577788 0.999804 0.0189484   
     length 2.08472   
     axis 0 0 0   XYZ
    dof rx ry rz
    limits (-20.0 45.0)
           (-30.0 30.0)
           (-30.0 30.0)
  end
  begin
     id 14 
     name lowerneck
     direction -1.09301e-005 0.994719 0.10264   
     length 1.76249   
     axis 0 0 0   XYZ
    dof rx ry rz
    limits (-20.0 45.0)
           (-30.0 30.0)
           (-30.0 30.0)
  end
  begin
     id 15 
     name upperneck
     direction 0.0495018 0.988526 -0.142706   
     length 1.77897   
     axis 0 0 0   XYZ
    dof rx ry rz
    limits (-20.0 45.0)
           (-30.0 30.0)
           (-30.0 30.0)
  end
  begin
     id 16
     name head
     direction 0.0142736 0.998114 -0.0597101  
     length 1.78934  
     axis 0 0 0   XYZ
    dof rx ry rz
    limits (-20.0 45.0)
           (-30.0 30.0)
           (-30.0 30.0)
  end
  begin
     id 17 
     name lclavicle
     direction 0.918111 0.396107 -0.0130883  
     length 3.37276  
     axis 0 0 0   XYZ
    dof ry rz
    limits (-20.0 10.0)
           (0.0 20.0)
  end
  begin
     id 18 
     name lhumerus
     direction 1 -4.48975e-011 -3.26108e-027   
     length 5.34298   
     axis 180 -30 -90   XYZ
    dof rx ry rz
    limits (-60.0 90.0)
           (-90.0 90.0)
           (-90.0 90.0)
  end
  begin
     id 19
     name lradius
     direction 1 -4.48964e-011 -8.84413e-028   
     length 3.67262   
     axis 180 -30 -90   XYZ
    dof rx
    limits (-10.0 170.0)
  end
  begin
     id 20
     name lwrist
     direction 1 -4.48991e-011 -1.24264e-027   
     length 1.83631   
     axis -2.17013e-015 90 90   XYZ
    dof ry
    limits (-180.0 0.0)
 end
  begin
     id 21 
     name lhand
     direction 1 -4.48855e-011 -2.48528e-027   
     length 0.599298   
     axis 1.58582e-015 90 90   XYZ
    dof rx rz
    limits (-90.0 90.0)
           (-45.0 45.0)
  end
  begin
     id 22 
     name lfingers
     direction 1 -4.48811e-011 -4.97056e-027   
     length 0.48317   
     axis 3.17164e-015 90 90   XYZ
    dof rx
    limits (0.0 90.0)
  end
  begin
     id 23
     name lthumb
     direction 0.707107 -6.34882e-011 0.707107   
     length 0.693738   
     axis -90 45 2.85299e-015   XYZ
    dof rx rz
    limits (-45.0 45.0)
           (-45.0 45.0)
  end
  begin
     id 24 
     name rclavicle
     direction -0.920511 0.384752 -0.0680135   
     length 3.43787  
     axis 0 0 0   XYZ 
    dof ry rz
    limits (-10.0 20.0)
           (-20.0 0.0)
  end
  begin
     id 25 
     name rhumerus
     direction -0.999976 -0.00330524 0.00603274  
     length 5.5498   
     axis 180 30 90   XYZ
    dof rx ry rz
    limits (-90.0 60.0)
           (-90.0 90.0)
           (-90.0 90.0)
  end
  begin
     id 26 
     name rradius
     direction -1 -4.48967e-011 8.62438e-027   
     length 3.69401   
     axis 180 30 90   XYZ
    dof rx
    limits (-10.0 170.0)
  end
  begin
     id 27 
     name rwrist
     direction -1 -4.4897e-011 9.54866e-027   
     length 1.84701   
     axis -7.69462e-015 -90 -90   XYZ
    dof ry
    limits (-180.0 0.0)
  end
  begin
     id 28
     name rhand
     direction -1 -4.48982e-011 1.90973e-026   
     length 0.638113   
     axis -1.21857e-014 -90 -90   XYZ
    dof rx rz
    limits (-90.0 90.0)
           (-45.0 45.0)
  end
  begin
     id 29
     name rfingers
     direction -1 -4.48936e-011 3.81946e-026   
     length 0.514463   
     axis -2.43714e-014 -90 -90   XYZ
    dof rx
    limits (0.0 90.0)
  end
  begin
     id 30
     name rthumb
     direction -0.707107 -6.34942e-011 0.707107   
     length 0.738669   
     axis -90 -45 -2.85299e-015   XYZ
    dof rx rz
    limits (-45.0 45.0)
           (-45.0 45.0)
  end
:hierarchy
  begin
    root lhipjoint rhipjoint lowerback
    lhipjoint lfemur
    lfemur ltibia
    ltibia lfoot
    lfoot ltoes
    rhipjoint rfemur
    rfemur rtibia
    rtibia rfoot
    rfoot rtoes
    lowerback upperback
    upperback thorax
    thorax lowerneck lclavicle rclavicle
    lowerneck upperneck
    upperneck head
    lclavicle lhumerus
    lhumerus lradius
    lradius lwrist
    lwrist lhand lthumb
    lhand lfingers
    rclavicle rhumerus
    rhumerus rradius
    rradius rwrist
    rwrist rhand rthumb
    rhand rfingers
  end

#!OML:ASF F:\twosubjects\two\Thursday\Session 1\Rory.ASF
:FULLY-SPECIFIED
:DEGREES
118
root 7.32288 10.4341 12.2302 158.531 -9.33997 186.451
lowerback 39.5529 4.43091 1.92892
upperback 16.5853 -0.0502544 -1.11962
thorax -0.735813 -2.43726 -2.11879
lowerneck -15.111 -6.43175 -7.16419
upperneck -14.3506 -8.99119 13.7732
head -0.875001 -5.33632 5.02962
rclavicle 7.95139e-016 1.90833e-014
rhumerus 4.5012 23.5159 -58.0024
rradius 87.9602
rwrist 13.9219
rhand -6.13593 28.2004
rfingers 7.12502
rthumb 19.7017 -0.821181
lclavicle 7.95139e-016 1.90833e-014
lhumerus 4.38848 -30.3539 41.1255
lradius 97.6446
lwrist -16.5198
lhand 6.14939 18.7922
lfingers 7.12502
lthumb 31.4657 46.1039
rfemur -53.95 -8.6685 -9.39511
rtibia 74.3439
rfoot 12.7453 -3.26602
rtoes -16.1995
lfemur -62.912 21.3687 5.37523
ltibia 66.7219
lfoot 25.329 5.15798
ltoes 32.5664
119
root 7.32873 10.4329 12.2204 158.503 -9.34387 186.229
lowerback 39.5054 4.5773 1.48458
upperback 16.6432 -0.066737 -1.25238
thorax -0.672346 -2.47581 -2.02735
lowerneck -15.4285 -6.36365 -7.28859
upperneck -14.3825 -8.8984 14.0464
head -0.823267 -5.29963 5.13057
rclavicle 4.77083e-015 4.13472e-014
rhumerus 3.96495 24.1765 -58.2608
rradius 87.5555
rwrist 13.8101
rhand -6.74024 25.3988
rfingers 7.12502
rthumb 19.1206 -3.68135
lclavicle 4.77083e-015 4.13472e-014
lhumerus 3.07878 -30.5234 41.6339
lradius 97.5009
lwrist -17.9016
lhand 4.64027 19.8382
lfingers 7.12502
lthumb 30.0268 47.4206
rfemur -54.0091 -8.65484 -9.54455
rtibia 74.4472
rfoot 12.9224 -2.7833
rtoes -18.3284
lfemur -62.8565 21.3339 5.3449
ltibia 67.0355
lfoot 24.9756 5.2765
ltoes 33.1381
120
root 7.33426 10.4381 12.2152 158.514 -9.30414 186.165
lowerback 39.4488 4.66012 1.30391
upperback 16.6143 -0.0282896 -1.50609
thorax -0.693438 -2.44707 -2.21371
lowerneck -15.5026 -6.32311 -7.12976
upperneck -14.3739 -8.8688 14.3168
head -0.799851 -5.30143 5.18634
rclavicle 2.22639e-014 -3.18055e-014
rhumerus 3.37744 24.7986 -58.8803
rradius 86.9161
rwrist 13.7086
rhand -8.26936 23.0655
rfingers 7.12502
rthumb 17.6496 -6.15342
lclavicle 2.22639e-014 -3.18055e-014
lhumerus 2.39759 -30.9084 41.6104
lradius 96.9706
lwrist -18.7049
lhand 2.08235 19.2745
lfingers 7.12502
lthumb 27.5833 47.2731
rfemur -54.1221 -8.6823 -9.42116
rtibia 74.4948
rfoot 13.2298 -1.82272
rtoes -22.8279
lfemur -62.8343 21.3827 5.38479
ltibia 67.2534
lfoot 24.8591 4.9982
ltoes 32.92
121
root 7.3358 10.4397 12.198 158.449 -9.18411 186.484
lowerback 39.4254 4.67963 1.47988
upperback 16.5865 0.0687951 -1.59951
thorax -0.70856 -2.37792 -2.43443
lowerneck -15.5665 -6.32508 -6.96266
upperneck -14.4866 -8.91078 14.4343
head -0.819016 -5.34708 5.19441
rclavicle 4.77083e-015 0
rhumerus 2.72646 24.8371 -59.3763
rradius 86.2075
rwrist 14.2091
rhand -8.30676 24.6735
rfingers 7.12502
rthumb 17.6137 -4.5487
lclavicle 4.77083e-015 0
lhumerus 1.86884 -31.2887 41.5399
lradius 96.6177
lwrist -19.3126
lhand -0.489334 17.4392
lfingers 7.12502
lthumb 25.1216 45.8064
rfemur -53.8535 -8.54115 -9.06944
rtibia 74.3658
rfoot 13.1414 -1.6333
rtoes -23.8958
lfemur -62.8362 21.4214 5.8067
ltibia 67.4082
lfoot 24.8503 4.44749
ltoes 31.7332
122
root 7.34052 10.4458 12.1909 158.295 -9.2375 186.344
lowerback 39.6083 4.86822 1.14283
upperback 16.6369 0.124228 -1.62889
thorax -0.715075 -2.39129 -2.30987
lowerneck -15.6687 -6.33119 -7.10542
upperneck -14.9364 -8.93692 14.6869
head -0.912934 -5.40679 5.30764
rclavicle -3.33958e-014 -8.11041e-014
rhumerus 2.13002 24.7291 -59.6097
rradius 85.7714
rwrist 14.8298
rhand -7.80617 26.9696
rfingers 7.12502
rthumb 18.0953 -2.20864
lclavicle -3.33958e-014 -8.11041e-014
lhumerus 0.825117 -31.3668 41.9116
lradius 96.8692
lwrist -20.4268
lhand -5.54745 16.9123
lfingers 7.12502
lthumb 20.2673 45.8749
rfemur -53.6632 -8.4774 -9.2043
rtibia 74.4028
rfoot 13.0492 -1.16065
rtoes -26.1977
lfemur -62.5595 21.1856 5.77341
ltibia 67.4042
lfoot 24.6687 4.30409
ltoes 31.3607
123
root 7.35344 10.4409 12.1922 158.03 -9.48807 185.65
lowerback 40.1822 5.2606 0.289178
upperback 16.5924 0.210839 -1.76022
thorax -0.955718 -2.4229 -2.02924
lowerneck -15.5584 -6.3518 -6.87948
upperneck -15.3909 -9.03581 14.7309
head -1.06248 -5.51611 5.29964
rclavicle 1.19271e-014 6.83819e-014
rhumerus 1.39717 24.6621 -60.0351
rradius 85.3474
rwrist 15.4828
rhand -8.46332 27.59
rfingers 7.12502
rthumb 17.463 -1.64558
lclavicle 1.19271e-014 6.83819e-014
lhumerus -0.126178 -31.2593 42.4374
lradius 97.3682
lwrist -23.0771
lhand -7.23791 16.676
lfingers 7.12502
lthumb 18.642 45.8027
rfemur -53.4552 -8.38086 -10.0347
rtibia 74.5158
rfoot 12.9956 -0.895014
rtoes -27.2137
lfemur -62.0656 20.8804 5.14792
ltibia 67.2833
lfoot 24.6054 4.55149
ltoes 31.7152
